<svg width="16.78" height="21.12" viewBox="0 0 16.78 21.12" fill="none" xmlns="http://www.w3.org/2000/svg">
  <path d="M13.92283464566929,3.0094488188976376c-0.5291338582677165,5.125984251968504,-3.075590551181102,5.258267716535433,-4.49763779527559,5.258267716535433c-2.943307086614173,0,-3.4393700787401573,-1.7858267716535432,-4.7622047244094485,-1.7858267716535432c-1.9511811023622048,0,-2.348031496062992,2.017322834645669,-3.075590551181102,2.017322834645669c-0.49606299212598426,0,-0.8598425196850393,-0.694488188976378,-0.8598425196850393,-1.1244094488188976l0.03307086614173228,-0.09921259842519685c0.5622047244094488,-2.1496062992125986,1.851968503937008,-3.7700787401574805,3.6708661417322834,-4.9275590551181105c2.3811023622047243,-1.4551181102362205,4.861417322834646,-3.737007874015748,4.861417322834646,-6.746456692913386c0,-0.9590551181102362,-0.03307086614173228,-3.174803149606299,-2.9763779527559056,-3.174803149606299c-1.9511811023622048,0,-2.546456692913386,0.7937007874015748,-2.6125984251968504,1.2566929133858267c0,0.6614173228346456,2.2818897637795277,0.7606299212598425,2.2818897637795277,2.7448818897637794c0,0.8267716535433071,-0.29763779527559053,2.910236220472441,-2.3149606299212597,2.910236220472441c-1.1905511811023621,0,-2.215748031496063,-0.7937007874015748,-2.7118110236220474,-1.8188976377952755c-0.1984251968503937,-0.49606299212598426,-0.29763779527559053,-0.9590551181102362,-0.29763779527559053,-1.4220472440944882c0,-0.8929133858267716,0.3637795275590551,-1.7196850393700787,0.925984251968504,-2.4141732283464568c1.6204724409448819,-1.8850393700787402,3.6708661417322834,-2.0834645669291336,5.985826771653543,-2.0834645669291336c3.075590551181102,0,6.5149606299212595,1.521259842519685,6.5149606299212595,5.026771653543307c0,2.7448818897637794,-2.0834645669291336,3.703937007874016,-4.398425196850393,4.332283464566929c-0.7275590551181103,0.1984251968503937,-3.5385826771653544,1.1905511811023621,-4.266141732283464,2.3811023622047243c0.3637795275590551,-0.13228346456692913,0.7937007874015748,-0.1984251968503937,1.2236220472440944,-0.1984251968503937c1.3559055118110237,0,2.910236220472441,0.5291338582677165,3.5716535433070864,0.7937007874015748c0.3307086614173228,0.1653543307086614,0.5622047244094488,0.1984251968503937,0.9921259842519685,0.3637795275590551c0.231496062992126,0.06614173228346457,0.3968503937007874,0.09921259842519685,0.5622047244094488,0.09921259842519685c0.694488188976378,0,0.9590551181102362,-0.6283464566929133,1.289763779527559,-1.4551181102362205l0.03307086614173228,-0.03307086614173228c0.06614173228346457,-0.231496062992126,0.1653543307086614,-0.3637795275590551,0.42992125984251967,-0.3637795275590551c0.231496062992126,0,0.3968503937007874,0.06614173228346457,0.3968503937007874,0.462992125984252z" transform="translate(0, 8.449606299212599)"></path>
</svg>
