<svg width="15.01" height="20.55" viewBox="0 0 15.01 20.55" fill="none" xmlns="http://www.w3.org/2000/svg">
  <path d="M2.5133858267716533,-1.9511811023622048v0.13228346456692913c0,0.09921259842519685,0,0.231496062992126,0.13228346456692913,0.231496062992126c0.03307086614173228,0,0.09921259842519685,0,0.1653543307086614,-0.03307086614173228c1.058267716535433,-0.6283464566929133,2.4803149606299213,-0.9590551181102362,4.398425196850393,-0.9590551181102362c3.0094488188976376,0,5.456692913385827,2.447244094488189,5.456692913385827,5.456692913385827c0,2.9763779527559056,-2.1826771653543307,5.423622047244095,-6.151181102362204,5.423622047244095c-4.067716535433071,0,-5.853543307086614,-1.3559055118110237,-5.853543307086614,-4.100787401574803c0,-0.1984251968503937,0,-0.3968503937007874,0.03307086614173228,-0.5952755905511811c0.09921259842519685,-1.1574803149606299,0.8267716535433071,-2.447244094488189,2.6125984251968504,-2.447244094488189c1.4220472440944882,0,2.579527559055118,1.1244094488188976,2.579527559055118,2.579527559055118c0,0.925984251968504,-0.49606299212598426,1.752755905511811,-1.2566929133858267,2.215748031496063c-0.1653543307086614,0.09921259842519685,-0.3968503937007874,0.231496062992126,-0.3968503937007874,0.462992125984252c0.03307086614173228,0.231496062992126,0.231496062992126,0.3637795275590551,0.3968503937007874,0.462992125984252c0.231496062992126,0.09921259842519685,0.49606299212598426,0.09921259842519685,0.7606299212598425,0.09921259842519685c0.8598425196850393,0,2.811023622047244,-0.462992125984252,2.811023622047244,-4.100787401574803c0,-3.6708661417322834,-2.2818897637795277,-4.299212598425197,-3.4062992125984253,-4.299212598425197s-1.9181102362204725,0.7606299212598425,-2.248818897637795,1.0913385826771653c-0.3637795275590551,0.3637795275590551,-0.3968503937007874,0.6614173228346456,-0.7275590551181103,0.6614173228346456s-0.6614173228346456,-0.06614173228346457,-0.6614173228346456,-0.49606299212598426v-0.06614173228346457l0.3637795275590551,-7.341732283464567c0.03307086614173228,-0.26456692913385826,0.1984251968503937,-0.5622047244094488,0.7937007874015748,-0.5622047244094488c0.5622047244094488,0.06614173228346457,3.4062992125984253,0.3307086614173228,4.464566929133858,0.3307086614173228s3.637795275590551,-0.29763779527559053,4.067716535433071,-0.29763779527559053c0.3637795275590551,0,0.462992125984252,0.26456692913385826,0.462992125984252,0.694488188976378c0,0.5291338582677165,-0.1653543307086614,3.174803149606299,-4.7622047244094485,3.174803149606299c-1.3559055118110237,0,-2.910236220472441,-0.231496062992126,-3.2409448818897637,-0.29763779527559053h-0.13228346456692913c-0.29763779527559053,0,-0.462992125984252,0.1653543307086614,-0.49606299212598426,0.42992125984251967c-0.03307086614173228,0.29763779527559053,-0.1653543307086614,2.1496062992125986,-0.1653543307086614,2.1496062992125986z" transform="translate(0, 8.218110236220472)"></path>
</svg>
