<svg xmlns="http://www.w3.org/2000/svg" width="16.29" height="20.67" viewBox="0 0 16.29 20.67" fill="black"><path d="M4.266141732283464,2.678740157480315c0.42992125984251967,0,1.388976377952756,0.26456692913385826,1.6204724409448819,0.694488188976378c0.3307086614173228,0.3637795275590551,0.49606299212598426,0.8598425196850393,0.49606299212598426,1.3559055118110237c0,0.3307086614173228,-0.06614173228346457,0.6614173228346456,-0.231496062992126,0.9590551181102362c-0.1984251968503937,0.3968503937007874,-0.8267716535433071,0.7937007874015748,-0.8267716535433071,1.2566929133858267c0,0.3307086614173228,0.42992125984251967,0.49606299212598426,1.0913385826771653,0.49606299212598426c0.694488188976378,0,2.6456692913385824,-0.1653543307086614,2.7448818897637794,-6.283464566929133c0,-0.5291338582677165,-0.09921259842519685,-0.7937007874015748,-0.29763779527559053,-0.7937007874015748c-0.06614173228346457,0,-0.13228346456692913,0,-0.1984251968503937,0.06614173228346457c-0.8598425196850393,0.7606299212598425,-1.9511811023622048,1.1574803149606299,-3.0094488188976376,1.1574803149606299c-2.546456692913386,0,-4.993700787401575,-2.215748031496063,-4.993700787401575,-4.7952755905511815c0,-1.4881889763779528,0.7606299212598425,-2.9763779527559056,1.9181102362204725,-3.9023622047244095c1.1905511811023621,-0.9590551181102362,2.8440944881889765,-1.1905511811023621,4.332283464566929,-1.1905511811023621c2.777952755905512,0,4.398425196850393,1.1905511811023621,5.754330708661417,3.637795275590551c0.7275590551181103,1.3228346456692912,0.9921259842519685,3.04251968503937,1.0251968503937008,4.563779527559055v0.13228346456692913c0,1.5543307086614173,-0.5622047244094488,3.3070866141732282,-1.289763779527559,4.696062992125984c-1.1905511811023621,2.248818897637795,-3.5385826771653544,3.47244094488189,-6.051968503937008,3.505511811023622c-1.7858267716535432,0,-4.365354330708661,-0.5622047244094488,-4.696062992125984,-2.678740157480315c-0.03307086614173228,-0.13228346456692913,-0.03307086614173228,-0.231496062992126,-0.03307086614173228,-0.3637795275590551c0,-1.4220472440944882,1.2566929133858267,-2.5133858267716533,2.6456692913385824,-2.5133858267716533zM7.011023622047244,0c1.058267716535433,0,1.9181102362204725,-1.6535433070866141,1.9181102362204725,-3.703937007874016s-0.8598425196850393,-3.703937007874016,-1.9181102362204725,-3.703937007874016s-1.9511811023622048,1.6535433070866141,-1.9511811023622048,3.703937007874016s0.8929133858267716,3.703937007874016,1.9511811023622048,3.703937007874016z" transform="translate(0, 8.26771653543307)"></path></svg>