<svg width="12.15" height="20.71" viewBox="0 0 12.15 20.71" fill="black" xmlns="http://www.w3.org/2000/svg">
  <path d="M0.7937007874015748,-0.42992125984251967l3.174803149606299,-7.24251968503937c0.13228346456692913,-0.29763779527559053,0.26456692913385826,-0.6283464566929133,0.5952755905511811,-0.6283464566929133c0.03307086614173228,0,0.09921259842519685,0.03307086614173228,0.1653543307086614,0.03307086614173228c0.49606299212598426,0.06614173228346457,1.0913385826771653,0.09921259842519685,1.7196850393700787,0.09921259842519685c0.42992125984251967,0,1.2566929133858267,-0.13228346456692913,1.7196850393700787,-0.13228346456692913c0.462992125984252,0.03307086614173228,0.6614173228346456,0.231496062992126,0.6614173228346456,0.7606299212598425v13.625196850393701c0,0.5622047244094488,0.5952755905511811,1.1574803149606299,1.058267716535433,1.1574803149606299c0.49606299212598426,0,0.49606299212598426,0.49606299212598426,0.49606299212598426,0.49606299212598426s0,0.5291338582677165,-0.5291338582677165,0.5291338582677165h-7.044094488188977c-0.42992125984251967,0,-0.7275590551181103,-0.1653543307086614,-0.7275590551181103,-0.5291338582677165c0,-0.3968503937007874,0.3307086614173228,-0.49606299212598426,0.5622047244094488,-0.49606299212598426c0.694488188976378,0,1.4551181102362205,-0.49606299212598426,1.4551181102362205,-1.2566929133858267v-8.532283464566929c0,-0.1984251968503937,-0.06614173228346457,-0.462992125984252,-0.1984251968503937,-0.462992125984252c-0.06614173228346457,0,-0.1984251968503937,0.09921259842519685,-0.3307086614173228,0.3307086614173228c-0.3637795275590551,0.6283464566929133,-1.7858267716535432,2.910236220472441,-1.7858267716535432,2.910236220472441s-0.13228346456692913,0.29763779527559053,-0.462992125984252,0.29763779527559053c-0.03307086614173228,0,-0.1653543307086614,-0.03307086614173228,-0.29763779527559053,-0.06614173228346457c-0.26456692913385826,-0.09921259842519685,-0.3637795275590551,-0.29763779527559053,-0.3637795275590551,-0.462992125984252c0,-0.231496062992126,0.13228346456692913,-0.42992125984251967,0.13228346456692913,-0.42992125984251967z" transform="translate(0, 8.284251968503938)"></path>
</svg>
