<svg xmlns="http://www.w3.org/2000/svg" width="12" height="16" viewBox="0 0 12 16"><path class="fill" fill-rule="evenodd" d="M6.079.032c1.323.096 5.26.96 5.26 3.904 0 .736-.19 1.472-.693 2.048-.347.416-.756.64-1.229.864-.283.16-.63.192-.976.288-.095.032-.126.16-.126.288 0 .064 0 .096.031.16.063.128.158.128.315.16l1.04.288.661.384c.315.192.567.416.756.672.252.288.473.608.599.928.189.416.252.864.283 1.312v.224C12 14.368 8.787 16 5.67 16h-.284C2.299 15.936.063 14.976 0 12.48c0-.704.157-1.472.693-1.952a2.853 2.853 0 0 1 1.512-.832c.126-.032.22-.032.346-.032.85 0 1.764.512 2.11 1.312.126.32.158.672.158.992-.032.928-.725 1.408-.725 2.112v.16c.032.48.63.48.882.512.032 0 .158.032.284.032.693 0 2.394-.384 2.394-3.776 0-.416-.284-2.912-3.906-2.912-.252 0-.787 0-.787-.384 0-.352.44-.512.756-.544C5.7 7.072 7.559 6.144 7.559 3.776v-.224c0-.768-.252-2.464-2.93-2.464-.283 0-1.259.256-1.322.8v.128c0 .448.473.384.63.448.157.064.945.128 1.04 1.312v.256c0 1.056-.694 2.08-2.08 2.08H2.74C.787 5.984.19 4.576.19 3.52.189 1.824 2.898 0 5.606 0c.158 0 .315.032.473.032z"></path></svg>