<svg width="17.78" height="20.71" viewBox="0 0 17.78 20.71" fill="none" xmlns="http://www.w3.org/2000/svg">
  <path d="M11.971653543307086,2.447244094488189h2.4141732283464568c0.3637795275590551,0,0.49606299212598426,0.231496062992126,0.49606299212598426,0.6283464566929133s-0.1653543307086614,0.6283464566929133,-0.49606299212598426,0.6283464566929133h-2.4141732283464568v1.9511811023622048c0,1.058267716535433,0.694488188976378,1.2566929133858267,1.0251968503937008,1.2566929133858267s0.7275590551181103,0.1984251968503937,0.7275590551181103,0.6614173228346456s-0.3307086614173228,0.694488188976378,-0.6614173228346456,0.694488188976378h-7.044094488188977c-0.49606299212598426,0,-0.6283464566929133,-0.3637795275590551,-0.6283464566929133,-0.694488188976378s0.231496062992126,-0.6283464566929133,0.7606299212598425,-0.6283464566929133c0.5952755905511811,0,1.3228346456692912,-0.26456692913385826,1.3228346456692912,-1.1574803149606299v-2.0834645669291336h-6.151181102362204c-0.3968503937007874,0,-0.6614173228346456,-0.231496062992126,-0.6614173228346456,-0.5622047244094488c0,-0.09921259842519685,0.03307086614173228,-0.231496062992126,0.09921259842519685,-0.3968503937007874l0.03307086614173228,-0.03307086614173228v-0.03307086614173228l0.1984251968503937,-0.26456692913385826c0.9921259842519685,-1.388976377952756,4.233070866141732,-5.985826771653543,4.233070866141732,-10.086614173228346c0,-0.5291338582677165,0.462992125984252,-0.6283464566929133,0.7606299212598425,-0.6283464566929133c0.26456692913385826,0,1.752755905511811,0.06614173228346457,2.348031496062992,0.06614173228346457s1.9511811023622048,-0.06614173228346457,2.248818897637795,-0.06614173228346457c0.26456692913385826,0,0.49606299212598426,0.1984251968503937,0.49606299212598426,0.49606299212598426l-0.03307086614173228,0.09921259842519685c-0.09921259842519685,0.3968503937007874,-5.390551181102362,7.903937007874015,-8.036220472440945,10.15275590551181h4.464566929133858v-2.777952755905512c0,-0.3968503937007874,0.1653543307086614,-0.5952755905511811,0.29763779527559053,-0.7606299212598425l3.1417322834645667,-3.8031496062992125c0.1984251968503937,-0.231496062992126,0.3637795275590551,-0.29763779527559053,0.6614173228346456,-0.29763779527559053c0.3637795275590551,0,0.3968503937007874,0.29763779527559053,0.3968503937007874,0.5622047244094488v7.077165354330709z" transform="translate(0, 8.284251968503938)"></path>
</svg>
