<svg xmlns="http://www.w3.org/2000/svg" width="16.57" height="20" viewBox="0 0 16.57 20" fill="black">
  <path d="M13.92283464566929,0.746456692913386v0.13228346456692913c0,3.4062992125984253,-3.9354330708661416,8.135433070866142,-3.9354330708661416,13.658267716535432c0,0.9590551181102362,-0.1984251968503937,1.2236220472440944,-0.5291338582677165,1.2236220472440944s-1.8850393700787402,-0.29763779527559053,-2.7118110236220474,-0.29763779527559053s-1.5543307086614173,0.29763779527559053,-2.1496062992125986,0.29763779527559053c-0.6283464566929133,0,-0.6283464566929133,-0.3307086614173228,-0.6283464566929133,-1.0251968503937008c0,-1.289763779527559,1.0251968503937008,-3.2078740157480317,2.2818897637795277,-4.6629921259842515c1.984251968503937,-2.348031496062992,4.530708661417322,-4.2,4.530708661417322,-5.125984251968504c-0.03307086614173228,-0.1984251968503937,-0.09921259842519685,-0.29763779527559053,-0.231496062992126,-0.29763779527559053c-0.06614173228346457,0,-0.1984251968503937,0.06614173228346457,-0.29763779527559053,0.13228346456692913c-0.26456692913385826,0.1984251968503937,-0.7275590551181103,0.694488188976378,-1.6535433070866141,0.694488188976378c-1.9181102362204725,0,-3.505511811023622,-2.4803149606299213,-4.8283464566929135,-2.4803149606299213c-1.4881889763779528,0,-1.9181102362204725,1.9181102362204725,-2.248818897637795,2.7448818897637794c-0.13228346456692913,0.3637795275590551,-0.231496062992126,0.6614173228346456,-0.49606299212598426,0.6614173228346456c-0.3307086614173228,0,-0.3637795275590551,-0.5291338582677165,-0.3637795275590551,-0.5291338582677165v-5.456692913385827c0,-0.29763779527559053,0.1653543307086614,-0.3968503937007874,0.3307086614173228,-0.3968503937007874s0.3307086614173228,0.09921259842519685,0.3968503937007874,0.231496062992126c0.1653543307086614,0.3307086614173228,0.5952755905511811,0.7937007874015748,0.8598425196850393,0.7937007874015748c0.231496062992126,-0.03307086614173228,0.42992125984251967,-0.1653543307086614,0.8929133858267716,-0.5952755905511811s0.9590551181102362,-1.1905511811023621,2.8771653543307085,-1.1905511811023621c2.7448818897637794,0,4.299212598425197,2.811023622047244,5.125984251968504,2.811023622047244s1.289763779527559,-1.8850393700787402,1.521259842519685,-2.2818897637795277c0.13228346456692913,-0.231496062992126,0.6614173228346456,-0.3637795275590551,0.694488188976378,-0.3637795275590551c0.5622047244094488,0,0.5622047244094488,0.42992125984251967,0.5622047244094488,1.3228346456692912z"/>
</svg>