<svg xmlns="http://www.w3.org/2000/svg" width="16.37" height="21.41" viewBox="0 0 16.37 21.41" fill="black"><path d="M11.045669291338582,-1.1905511811023621c1.5543307086614173,0.7937007874015748,2.7118110236220474,1.8850393700787402,2.7118110236220474,3.869291338582677c0,4.464566929133858,-3.5385826771653544,5.886614173228346,-6.845669291338583,5.886614173228346c-3.274015748031496,0,-6.250393700787401,-1.3228346456692912,-6.250393700787401,-4.2c0,-2.0834645669291336,1.3228346456692912,-3.174803149606299,3.04251968503937,-4.001574803149606c-1.5874015748031496,-0.8929133858267716,-2.8771653543307085,-2.116535433070866,-2.8771653543307085,-4.398425196850393c0,-2.777952755905512,2.6125984251968504,-4.530708661417322,6.448818897637795,-4.530708661417322c0.8929133858267716,0,5.754330708661417,0.49606299212598426,5.754330708661417,3.869291338582677c0,1.6535433070866141,-0.7937007874015748,2.7448818897637794,-1.984251968503937,3.505511811023622zM9.325984251968503,-1.9511811023622048c1.0913385826771653,-0.6283464566929133,1.752755905511811,-1.4881889763779528,1.752755905511811,-2.811023622047244c0,-2.3149606299212597,-2.811023622047244,-2.8440944881889765,-3.869291338582677,-2.8440944881889765c-1.4551181102362205,0,-3.3401574803149607,0.694488188976378,-3.3401574803149607,2.0834645669291336c0,2.0834645669291336,2.811023622047244,2.6456692913385824,5.456692913385827,3.5716535433070864zM6.779527559055118,7.474015748031496c2.215748031496063,0,3.2409448818897637,-1.1244094488188976,3.2409448818897637,-2.447244094488189c0,-2.1826771653543307,-2.447244094488189,-2.8771653543307085,-4.861417322834646,-3.9354330708661416c-1.4551181102362205,0.5622047244094488,-2.6125984251968504,1.7858267716535432,-2.6125984251968504,3.1086614173228346c0,2.1496062992125986,2.017322834645669,3.274015748031496,4.233070866141732,3.274015748031496z" transform="translate(0, 8.565354330708661)"></path></svg>