<svg width="24" height="307" viewBox="0 0 24 307" fill="none" xmlns="http://www.w3.org/2000/svg">
<path fill-rule="evenodd" clip-rule="evenodd" d="M21.1875 0.550896C13.7432 8.12658 3.62209 30.0562 4.74469 51.4276C5.36464 63.2298 6.66737 73.2413 7.92093 82.8749C9.4794 94.8517 10.9619 106.244 10.9619 119.768C10.9619 134.388 5.80833 146.402 0.000299689 153.5H0C4.99291e-05 153.5 9.98582e-05 153.5 0.000149787 153.5C9.98582e-05 153.5 4.99291e-05 153.5 0 153.5H0.000299689C5.80833 160.597 10.9619 172.611 10.9619 187.232C10.9619 200.755 9.4794 212.148 7.92093 224.125C6.66737 233.759 5.36464 243.77 4.74469 255.572C3.62209 276.944 13.7432 298.873 21.1875 306.449C21.5965 306.865 22.5882 307.318 23.3962 306.688C24.2143 306.05 24.1325 305.093 23.5598 304.216C23.3565 303.905 23.1134 303.55 22.8383 303.148C20.5777 299.849 16.1499 293.387 13.7432 281.728C11.9543 273.062 13.7787 256.18 15.6479 238.882C17.443 222.271 19.2795 205.277 17.9971 194.807C15.9941 178.454 14.8067 170.725 3.76315 153.5C14.8067 136.275 15.9941 128.546 17.9971 112.193C19.2795 101.723 17.443 84.7287 15.6479 68.1174C13.7787 50.8199 11.9543 33.9379 13.7432 25.2716C16.1499 13.6125 20.5778 7.15049 22.8383 3.85141C23.1134 3.44988 23.3565 3.09521 23.5598 2.78372C24.1325 1.90666 24.2143 0.949479 23.3962 0.311647C22.5882 -0.318404 21.5965 0.134533 21.1875 0.550896Z" fill="black"/>
</svg>
